# xmcd
#
# Track frame offsets:
#	150
#	25642
#	45040
#	64767
#	85185
#	100652
#	118857
#	132312
#	153810
#	170842
#
# Disc length: 2691 seconds
#
# Revision: 2
# Processed by: cddbd v1.5.2PL0 Copyright (c) Steve Scherf et al.
# Submitted via: audiograbber 1.83.01
#
DISCID=720a810a
DTITLE=Tommy Wright III Presents - Behind Closed Doors [CD2]
DYEAR=2001
DGENRE=Rap
TTITLE0=Manson Family - Talk Is Cheap
TTITLE1=Mr.Emp, Mr.Nigga - The Big Picture
TTITLE2=Underground Thugz - Ghetto Children
TTITLE3=Lil' Sko - Balla On A Budget
TTITLE4=Tommy Wright III, Double L - Too Many Enemies
TTITLE5=D.J. Trick - Tonight
TTITLE6=Mr.Nigga - Win Or Lose
TTITLE7=Princess Loko - Get Da Anna Off
TTITLE8=Chargepartnaz, C-Roc - Local Jokers
TTITLE9=2-Faced - Wish You Would
EXTD=www.RapMusicGuide.com
EXTT0=
EXTT1=
EXTT2=
EXTT3=
EXTT4=
EXTT5=
EXTT6=
EXTT7=
EXTT8=
EXTT9=
PLAYORDER=
